<?xml version="1.0" encoding="UTF-8"?>
<svg id="Layer_1" data-name="Layer 1" xmlns="http://www.w3.org/2000/svg" xmlns:xlink="http://www.w3.org/1999/xlink" viewBox="0 0 397.71 329.36">
  <defs>
    <style>
      .cls-1 {
        fill: #f1572b;
      }

      .cls-2 {
        clip-path: url(#clippath-20);
      }

      .cls-3 {
        clip-path: url(#clippath-11);
      }

      .cls-4 {
        clip-path: url(#clippath-16);
      }

      .cls-5 {
        fill: #fff;
      }

      .cls-6 {
        fill: #ef4634;
      }

      .cls-7 {
        fill: #f1592a;
      }

      .cls-8 {
        fill: #f15a29;
      }

      .cls-9 {
        clip-path: url(#clippath-2);
      }

      .cls-10 {
        clip-path: url(#clippath-13);
      }

      .cls-11 {
        clip-path: url(#clippath-15);
      }

      .cls-12 {
        clip-path: url(#clippath-6);
      }

      .cls-13 {
        fill: #f0542d;
      }

      .cls-14 {
        fill: #ef4335;
      }

      .cls-15 {
        clip-path: url(#clippath-7);
      }

      .cls-16 {
        fill: #f1582b;
      }

      .cls-17 {
        clip-path: url(#clippath-1);
      }

      .cls-18 {
        clip-path: url(#clippath-4);
      }

      .cls-19 {
        fill: #f1552c;
      }

      .cls-20 {
        fill: #f04932;
      }

      .cls-21 {
        clip-path: url(#clippath-12);
      }

      .cls-22 {
        fill: #f15929;
      }

      .cls-23 {
        fill: #f04b32;
      }

      .cls-24 {
        fill: #f04d31;
      }

      .cls-25 {
        fill: #f0522e;
      }

      .cls-26 {
        fill: #f0502f;
      }

      .cls-27 {
        fill: #f0532e;
      }

      .cls-28 {
        clip-path: url(#clippath-9);
      }

      .cls-29 {
        clip-path: url(#clippath);
      }

      .cls-30 {
        fill: #ef4534;
      }

      .cls-31 {
        fill: none;
      }

      .cls-32 {
        clip-path: url(#clippath-19);
      }

      .cls-33 {
        clip-path: url(#clippath-3);
      }

      .cls-34 {
        fill: #ef4733;
      }

      .cls-35 {
        fill: #f04e30;
      }

      .cls-36 {
        fill: #f1562c;
      }

      .cls-37 {
        fill: #f0512f;
      }

      .cls-38 {
        clip-path: url(#clippath-8);
      }

      .cls-39 {
        fill: #ef4136;
      }

      .cls-40 {
        clip-path: url(#clippath-18);
      }

      .cls-41 {
        clip-path: url(#clippath-14);
      }

      .cls-42 {
        clip-path: url(#clippath-17);
      }

      .cls-43 {
        clip-path: url(#clippath-5);
      }

      .cls-44 {
        fill: #f04c31;
      }

      .cls-45 {
        fill: #f04f30;
      }

      .cls-46 {
        clip-path: url(#clippath-10);
      }

      .cls-47 {
        fill: #f04833;
      }

      .cls-48 {
        fill: #ef4435;
      }

      .cls-49 {
        fill: #ef4236;
      }
    </style>
    <clipPath id="clippath">
      <path class="cls-31" d="m33.58,311.95v-60.1H13.93v-8.61c7.13-.08,12.49-1.43,16.1-4.04s5.72-6.71,6.35-12.29h8.31v85.05h-11.11Z"/>
    </clipPath>
    <clipPath id="clippath-1">
      <path class="cls-31" d="m118.11,283.25c1.94,3.33,3.8,6.51,5.63,9.7.12.2.09.62-.05.81-4.03,5.75-8.66,10.94-14.98,14.23-10.2,5.32-20.75,5.59-31.17.98-12.02-5.31-19.24-14.73-21.49-27.69-3.37-19.41,10.24-38.48,29.64-41.68,14.5-2.39,26.2,2.57,35.42,13.82,3.8,4.65,6.85,9.78,9.79,15,3.38,5.99,6.72,12.01,10.28,17.88,2.48,4.09,5.55,7.75,9.43,10.63,9.73,7.2,23.88,6.08,32.75-2.82,7.44-7.47,9.76-16.55,6.51-26.57-3.27-10.05-10.47-16.08-20.94-17.73-9.44-1.48-17.33,1.76-23.54,8.94-2.02,2.33-3.71,4.94-5.55,7.43-.22.3-.42.62-.67,1-.2-.31-.35-.54-.49-.77-1.66-2.85-3.33-5.7-4.95-8.57-.16-.29-.23-.84-.06-1.07,4.11-5.75,8.92-10.76,15.3-14.02,6.41-3.28,13.27-4.41,20.35-3.49,12.96,1.69,22.66,8.39,28.51,20.06,10.59,21.11-1.35,46.55-24.51,51.76-13.76,3.1-25.54-.84-35.04-11.35-4.46-4.94-7.85-10.59-11.12-16.34-3.53-6.22-6.98-12.5-10.71-18.6-2.75-4.5-6.18-8.5-10.67-11.42-10.78-7-25.83-4.39-33.98,5.87-12.16,15.31-3.97,37.99,15.2,41.82,9.19,1.84,17.2-.72,23.54-7.66,2.52-2.75,4.55-5.95,6.8-8.95.26-.35.48-.74.78-1.21Z"/>
    </clipPath>
    <clipPath id="clippath-2">
      <path class="cls-31" d="m376.3,107.63c.46,18.76-2.49,24.94-13.51,26.16-.23,4.55-.68,9.29-.67,14.04.06,30.98-8.49,59.21-26.5,84.56-12.5,17.59-27.5,32.57-45.77,44.13-17.18,10.87-35.78,18.66-55.34,24.12-7.74,2.16-15.63,3.83-23.47,5.63-1.43.33-2.95.21-4.44.3-.13-.45-.27-.9-.4-1.36,1.82-.66,3.59-1.56,5.47-1.96,18.99-4.01,37.56-9.44,55.11-17.75,21.56-10.21,40.13-24.4,56.24-42.14,15.79-17.39,26.17-37.48,31.7-59.96,2.84-11.54,3.57-23.6,5.12-35.45,1.06-8.06,1.46-16.24,3.05-24.18.66-3.27,3.41-6.28,5.7-9,2.21-2.63,5.05-4.72,7.71-7.14Z"/>
    </clipPath>
    <clipPath id="clippath-3">
      <path class="cls-31" d="m288.07,234.41c-1,1.44-1.86,3-3.01,4.29-5.37,6.01-7.18,13.27-5.95,20.86,1.91,11.77-4.2,18.19-13.53,23.18-9.27,4.95-9.51,2.25-9.64-6.19-.1-6.89,3.27-12.45,7.45-17.52,2.14-2.6,4.73-4.82,7.15-7.18,5.88-5.72,11.78-11.43,17.68-17.14-.05-.1-.1-.2-.15-.3Z"/>
    </clipPath>
    <clipPath id="clippath-4">
      <path class="cls-31" d="m319.05,294.47c-9.72,2.63-19.33,5.81-29.19,7.71-8.47,1.63-16.89.24-24.15-5.19-3.01-2.25-2.97-3.33.25-5.05,1.37-.73,2.72-1.48,4.08-2.22,9.15-4.98,18.32-7.08,28-1.06,6.31,3.92,13.31,5.77,20.96,4.66.02.38.03.77.05,1.15Z"/>
    </clipPath>
    <clipPath id="clippath-5">
      <path class="cls-31" d="m301.23,227.26c1.06,7.64,2.67,14.92,2.83,22.23.08,3.85-1.6,8.29-3.87,11.49-2.26,3.19-6.16,5.26-9.5,7.61-2.78,1.96-4.35.59-5.22-2.32-2.32-7.78-1.39-15.27,2.95-21.95,3.94-6.06,8.67-11.61,12.81-17.07Z"/>
    </clipPath>
    <clipPath id="clippath-6">
      <path class="cls-31" d="m342.06,270.2c-11,8.44-22.27,15.62-36.83,13.12-2.88-.49-5.69-1.57-8.46-2.58-2.02-.73-2.78-2.25-.87-3.81,3.7-3.02,7.34-6.26,11.45-8.62,4.7-2.7,10.02-2.8,15.21-1.02,6.3,2.16,12.57,4.38,19.5,2.91Z"/>
    </clipPath>
    <clipPath id="clippath-7">
      <path class="cls-31" d="m317.39,205.11c-1.69,6.41.62,12.14,3.47,17.48,5.79,10.84,1.47,17.85-6.52,25.8-1.82,1.81-2.97,1.29-4.26-.77-3.84-6.09-5.18-12.72-3.1-19.47,2.46-7.99,5.82-15.7,8.79-23.53.54.16,1.08.32,1.62.49Z"/>
    </clipPath>
    <clipPath id="clippath-8">
      <path class="cls-31" d="m364.68,243.86c-6.92,4.79-13.63,9.92-20.82,14.27-6.39,3.86-13.48,3.4-20.57,1.48-3.33-.9-3.26-2.39-1.67-4.84,6.43-9.96,13.18-12.89,25.28-10.63,5.82,1.09,11.51,1.3,17.02-1.38.25.36.51.73.76,1.09Z"/>
    </clipPath>
    <clipPath id="clippath-9">
      <path class="cls-31" d="m376.13,215.57c-3.55,4.16-7.56,9.39-12.13,14.08-5.65,5.79-12.72,8.12-20.88,7-3.55-.49-4.18-2.05-2.72-5.19,5-10.79,9.29-13.26,20.98-13.41,5.11-.07,10.2-1.68,14.75-2.49Z"/>
    </clipPath>
    <clipPath id="clippath-10">
      <path class="cls-31" d="m327.35,183.1c0,6.73,1.57,13.02,5.68,18.23,6.83,8.65,5.35,16.92-.17,25.33-2.1,3.2-3.15,3.25-5.64.17-4-4.96-6.14-10.7-5.17-16.95,1.4-8.98,3.5-17.85,5.3-26.77Z"/>
    </clipPath>
    <clipPath id="clippath-11">
      <path class="cls-31" d="m353.93,211.62c-1.43-9.69,4.21-17.9,13.2-19.5,6.12-1.09,12.45-1.77,16.51-7.7-2.88,5.66-5.35,11.57-8.74,16.91-4.78,7.51-11.7,11.5-20.96,10.29Z"/>
    </clipPath>
    <clipPath id="clippath-12">
      <path class="cls-31" d="m335,161.18c-.56,5.38,1.97,9.67,4.62,13.87,1.12,1.78,2.58,3.36,3.91,5.02,6.6,8.24,6.7,16.44.08,25.37-5.54-3.98-9-9.36-9.89-15.96-.61-4.55-.03-9.26.09-13.89.09-3.22.24-6.45.47-9.66.11-1.59.46-3.16.71-4.74Z"/>
    </clipPath>
    <clipPath id="clippath-13">
      <path class="cls-31" d="m385.14,158.79c-2.6,6.35-5.22,13.44-8.4,20.27-2.2,4.73-6.95,6.37-11.71,7.53-2.51.61-3.69-.59-3.77-3.12-.28-8.94,3.85-14.41,12.07-17.59,4.25-1.65,7.95-4.71,11.81-7.08Z"/>
    </clipPath>
    <clipPath id="clippath-14">
      <path class="cls-31" d="m339.36,148.28c3.33,3.72,6.73,7.98,10.62,11.76,6.74,6.55,4.69,14.1,3.3,21.73-9.55-1.47-15.38-16.05-13.92-33.48Z"/>
    </clipPath>
    <clipPath id="clippath-15">
      <path class="cls-31" d="m381.68,129.1c-1.19,6.32-2.18,12.92-3.75,19.38-1.05,4.33-4.35,7.13-8.32,9.06-2.6,1.26-4,.29-4.5-2.39-1.67-8.91.59-13.63,8.06-18.5,3.09-2.01,5.61-4.92,8.51-7.54Z"/>
    </clipPath>
    <clipPath id="clippath-16">
      <path class="cls-31" d="m340.55,124.95c3.51,3.07,6.92,6.39,10.68,9.25,7.17,5.45,6.26,13.16,6.64,20.7-9.63-.95-15.14-10.52-17.31-29.95Z"/>
    </clipPath>
    <clipPath id="clippath-17">
      <path class="cls-31" d="m339.66,106.65c15.79,10.92,17.15,12.86,18.06,26.49-2.89-1.4-5.51-2.12-7.42-3.69-6.87-5.67-8.22-14.04-10.64-22.79Z"/>
    </clipPath>
    <clipPath id="clippath-18">
      <path class="cls-31" d="m370.7,85.52c-.33,6.58-.16,12.47-1.15,18.17-.41,2.35-2.91,5.1-5.17,6.18-2.87,1.38-3.67,2.96-3.56,5.79.09,2.24-.19,4.49-1.02,6.77-.18-4.25-.67-8.52-.44-12.75.24-4.4.28-9.17,2.05-13.02,1.78-3.89,5.58-6.85,9.29-11.14Z"/>
    </clipPath>
    <clipPath id="clippath-19">
      <path class="cls-31" d="m350.03,65.59c6.65,8.21,8.28,15.79,6.97,32.78-7.94-9.33-10.75-20.66-6.97-32.78Z"/>
    </clipPath>
    <clipPath id="clippath-20">
      <path class="cls-31" d="m339.12,87.51c5.06,3.96,10.53,7.19,14.46,11.75,2.08,2.41,1.48,7.12,2.1,10.88-7.65-.38-15.51-11.85-16.56-22.63Z"/>
    </clipPath>
  </defs>
  <g>
    <path class="cls-5" d="m75.73,68.56c0,2.49.1,4.19.31,5.12.21.92.64,1.69,1.29,2.3.65.61,1.83,1.13,3.54,1.55v3.2h-25.32v-3.2c1.87-.49,3.09-.97,3.64-1.46.55-.48.94-1.17,1.16-2.06.23-.89.34-2.71.34-5.46v-19.45h-21.92v19.45c0,1.13.03,2.18.1,3.15.06.97.19,1.76.39,2.38.19.61.48,1.13.85,1.55.37.42.88.78,1.53,1.09.65.31,1.44.57,2.38.8v3.2h-25.46v-3.2c1.2-.32,2.14-.67,2.84-1.04.7-.37,1.21-.89,1.55-1.55.34-.66.56-1.5.65-2.52.1-1.02.15-2.3.15-3.86V26.75c0-1.52-.04-2.8-.12-3.83-.08-1.03-.29-1.87-.63-2.52-.34-.65-.86-1.17-1.55-1.58-.7-.4-1.66-.77-2.89-1.09v-3.2h25.46v3.2c-1.71.48-2.89,1.02-3.52,1.6s-1.08,1.35-1.33,2.3c-.26.95-.39,2.68-.39,5.17v16.2h21.92v-16.2c0-2.46-.1-4.16-.31-5.12-.21-.95-.63-1.73-1.26-2.33-.63-.6-1.82-1.14-3.56-1.62v-3.2h25.32v3.2c-1.42.39-2.46.8-3.1,1.24-.65.44-1.11.99-1.38,1.67-.27.68-.45,1.44-.53,2.28-.08.84-.12,2.13-.12,3.88v41.76Z"/>
    <path class="cls-5" d="m133.64,71.91c-3.3,3.49-6.56,5.97-9.8,7.42-3.23,1.45-6.95,2.18-11.15,2.18-7.53,0-13.2-2.06-17-6.18-3.8-4.12-5.7-10.24-5.7-18.36,0-5.24.98-9.75,2.93-13.55,1.96-3.8,4.73-6.68,8.32-8.63,3.59-1.96,7.76-2.93,12.51-2.93,2.94,0,5.52.34,7.74,1.02,2.21.68,4.11,1.62,5.7,2.84,1.58,1.21,2.89,2.68,3.93,4.39,1.23,2.04,2.15,4.37,2.76,6.98.65,2.68.99,5.93,1.02,9.75h-30.75c.03,5.85,1.07,10.16,3.13,12.92,2.05,2.76,5.18,4.15,9.38,4.15,2.46,0,4.67-.46,6.64-1.38,1.97-.92,4.11-2.55,6.4-4.87l3.93,4.27Zm-13.09-20.32c-.13-4.95-.78-8.63-1.94-11.06-1.16-2.42-3.04-3.64-5.63-3.64s-4.47,1.26-5.94,3.78c-1.47,2.52-2.35,6.16-2.64,10.91h16.15Z"/>
    <path class="cls-5" d="m165.21,82.92c-2.1,4.69-4.08,8.37-5.94,11.03-1.86,2.67-3.86,4.66-6.01,5.99-2.15,1.33-4.83,1.99-8.03,1.99-2.43,0-4.69-.31-6.79-.92v-11.11h5.43c.42,1.52.95,2.56,1.58,3.13.63.57,1.51.85,2.64.85,1.23,0,2.34-.34,3.32-1.02.99-.68,2.1-1.95,3.35-3.81,1.24-1.86,2.77-4.63,4.58-8.32h-2.76l-12.66-36.42c-.91-2.55-1.62-4.31-2.16-5.26-.53-.95-1.13-1.68-1.79-2.18-.66-.5-1.48-.85-2.45-1.04v-3.2h24.2v3.2c-1.52.29-2.64.73-3.35,1.31-.71.58-1.07,1.46-1.07,2.62,0,1.55.42,3.57,1.26,6.06l6.98,21.19,7.71-18.57c.65-1.55,1.13-2.92,1.45-4.1.32-1.18.49-2.34.49-3.47,0-1.36-.39-2.48-1.16-3.37-.78-.89-1.88-1.45-3.3-1.67v-3.2h18.87v3.25c-.94.29-1.69.65-2.26,1.07-.57.42-1.1.97-1.6,1.65-.5.68-1.11,1.69-1.82,3.03-.71,1.34-1.68,3.37-2.91,6.09l-15.81,35.21Z"/>
    <path class="cls-5" d="m237.52,66.57c0,2.46.04,4.25.12,5.38.08,1.13.27,2.04.56,2.72s.76,1.24,1.41,1.67c.65.44,1.73.82,3.25,1.14v3.25l-13.19.44h-5.87l.44-6.98-.73-.05c-2.33,2.36-4.78,4.18-7.35,5.46-2.57,1.28-5.04,1.92-7.4,1.92-5.89,0-10.29-2.02-13.22-6.06-2.93-4.04-4.39-10.12-4.39-18.24,0-5.5.89-10.13,2.67-13.89,1.78-3.77,4.42-6.62,7.93-8.56,3.51-1.94,7.74-2.91,12.68-2.91,1.42,0,2.82.09,4.2.27,1.37.18,3,.53,4.87,1.04v-4.41c0-3.46-.05-5.91-.15-7.35-.1-1.44-.3-2.54-.61-3.3-.31-.76-.77-1.35-1.38-1.77-.61-.42-1.73-.79-3.35-1.12v-3.25l13.43-.68h6.06v55.29Zm-14.02-18.04c0-3.94-.66-6.87-1.99-8.78-1.33-1.91-3.36-2.86-6.11-2.86-2.01,0-3.73.72-5.17,2.16-1.44,1.44-2.52,3.52-3.25,6.23s-1.09,5.93-1.09,9.65c0,6.37.7,11.12,2.09,14.26,1.39,3.14,3.56,4.7,6.5,4.7,1.39,0,2.77-.35,4.15-1.04,1.37-.7,2.53-1.76,3.47-3.2.94-1.44,1.41-3.1,1.41-4.97v-16.15Z"/>
    <path class="cls-5" d="m269.53,36.89c-2.42,0-4.54.63-6.35,1.89-1.81,1.26-3.2,3.22-4.17,5.87h-6.5v-9.6c1.16-.32,2.5-.67,4.03-1.04,1.52-.37,3.14-.72,4.85-1.04,1.71-.32,3.47-.59,5.26-.8,1.79-.21,3.53-.31,5.21-.31,7.66,0,13.4,2.08,17.22,6.23,3.81,4.16,5.72,10.21,5.72,18.16,0,3.75-.56,7.18-1.67,10.28-1.12,3.1-2.7,5.76-4.75,7.98-2.05,2.21-4.51,3.94-7.37,5.17s-6.04,1.84-9.53,1.84c-4.01,0-7.39-.61-10.14-1.84-2.75-1.23-4.97-2.9-6.67-5.02-1.7-2.12-2.93-4.58-3.69-7.4-.76-2.81-1.14-5.82-1.14-9.02,0-.52.02-1.1.05-1.75h30.8c-.03-2.33-.21-4.66-.53-7.01-.32-2.34-.91-4.45-1.75-6.3s-1.97-3.37-3.39-4.54c-1.42-1.16-3.25-1.75-5.48-1.75Zm2.57,39.58c1.52,0,2.8-.43,3.83-1.29,1.03-.86,1.87-1.99,2.5-3.39s1.11-2.98,1.43-4.73c.32-1.75.55-3.52.68-5.33h-16.39c.03,5.01.73,8.72,2.09,11.13,1.36,2.41,3.31,3.61,5.87,3.61Z"/>
    <path class="cls-5" d="m321.47,39.56l.63.15c2.36-2.78,4.78-4.79,7.27-6.01,2.49-1.23,5.19-1.84,8.1-1.84,1.97,0,4.04.21,6.21.63v13.39h-8.78c-.55-1.88-1.27-3.31-2.16-4.32-.89-1-2.08-1.5-3.56-1.5-.71,0-1.5.22-2.35.65-.86.44-1.65,1.05-2.38,1.84-.73.79-1.25,1.6-1.55,2.42-.31.82-.51,1.66-.61,2.5s-.15,2.1-.15,3.78v15.47c0,3.07.11,5.22.34,6.45.23,1.23.68,2.19,1.36,2.88.68.7,1.83,1.19,3.44,1.48v3.2h-23.91v-3.2c1.55-.42,2.63-.97,3.23-1.65.6-.68,1-1.6,1.21-2.76.21-1.16.32-3.28.32-6.35v-19.93c0-2.39-.04-4.16-.12-5.31-.08-1.15-.27-2.07-.58-2.76-.31-.69-.78-1.26-1.41-1.7s-1.72-.82-3.27-1.14v-3.3l13.29-.39h6.11l-.68,7.32Z"/>
    <path class="cls-5" d="m46.27,138.58c-2.2,0-4.1.22-5.7.65-1.6.44-2.98,1.1-4.14,1.99s-2.14,2-2.93,3.32c-.79,1.33-1.46,2.88-2.01,4.65h-7.71v-13.72c8.66-1.71,16.33-2.57,23.02-2.57,5.36,0,9.99.68,13.89,2.04,3.89,1.36,7.11,3.41,9.65,6.16,2.54,2.75,4.41,6.2,5.62,10.35,1.21,4.15,1.82,9.01,1.82,14.56,0,6.08-.72,11.29-2.16,15.66-1.44,4.36-3.48,7.95-6.13,10.76-2.65,2.81-5.82,4.88-9.52,6.2-3.7,1.33-7.83,1.99-12.38,1.99-19.03,0-28.55-11.1-28.55-33.3v-.56c0-.24,0-.49.02-.73.02-.24.03-.47.05-.68.02-.21.02-.36.02-.46h43.18c-.16-8.89-1.6-15.49-4.31-19.82-2.71-4.33-6.62-6.49-11.73-6.49Zm2.42,56.37c2.52,0,4.64-.66,6.37-1.99,1.73-1.33,3.13-3.2,4.19-5.62.9-2,1.59-4.28,2.06-6.83.47-2.55.78-5.7.94-9.45h-27.92c.32,8.21,1.69,14.24,4.1,18.1,2.41,3.86,5.82,5.79,10.25,5.79Z"/>
    <path class="cls-5" d="m105.21,185.84c0,3.07.1,5.19.29,6.35.19,1.16.59,2.09,1.19,2.79.6.7,1.72,1.25,3.37,1.67v3.2h-23.75v-3.2c.97-.23,1.73-.49,2.28-.8.55-.31.98-.66,1.28-1.07.31-.4.57-.92.8-1.55.23-.63.37-1.5.44-2.62.06-1.12.1-2.71.1-4.77v-37.8c0-2.78-.02-4.82-.07-6.13-.05-1.31-.15-2.41-.29-3.29s-.39-1.6-.73-2.13-.82-.96-1.43-1.28c-.61-.32-1.6-.61-2.96-.87v-3.2l13.43-.68h6.06v55.4Z"/>
    <path class="cls-5" d="m117.61,196.65c1.58-.42,2.67-.97,3.27-1.65.6-.68,1-1.6,1.21-2.76.21-1.16.31-3.28.31-6.35v-22.54c0-1.58-.07-2.86-.22-3.83s-.42-1.75-.82-2.33c-.4-.58-.95-1.03-1.65-1.33-.7-.31-1.59-.57-2.69-.8v-3.3l13.33-.39h6.06v34.46c0,1.81.02,3.21.07,4.19.05.99.12,1.75.22,2.28.1.53.23,1.01.41,1.43.18.42.41.81.7,1.16.29.36.71.68,1.26.97.55.29,1.28.55,2.18.78v3.2h-23.65v-3.2Zm18.42-64.22v11.87h-13.28v-11.87h13.28Z"/>
    <path class="cls-5" d="m170.68,202.03c-2.1,4.68-4.08,8.36-5.94,11.03-1.86,2.67-3.86,4.66-6.01,5.99-2.15,1.33-4.82,1.99-8.02,1.99-2.42,0-4.69-.31-6.79-.92v-11.1h5.43c.42,1.52.95,2.56,1.58,3.13s1.51.85,2.64.85c1.23,0,2.33-.34,3.32-1.02.99-.68,2.1-1.95,3.34-3.8,1.24-1.86,2.77-4.63,4.58-8.31h-2.76l-12.65-36.4c-.9-2.55-1.62-4.31-2.16-5.26-.53-.95-1.13-1.68-1.79-2.18-.66-.5-1.48-.85-2.45-1.04v-3.2h24.19v3.2c-1.52.29-2.63.73-3.34,1.31-.71.58-1.07,1.45-1.07,2.62,0,1.55.42,3.57,1.26,6.06l6.98,21.18,7.71-18.56c.65-1.55,1.13-2.92,1.45-4.1.32-1.18.48-2.33.48-3.47,0-1.36-.39-2.48-1.16-3.37-.78-.89-1.87-1.45-3.3-1.67v-3.2h18.85v3.25c-.94.29-1.69.65-2.25,1.07-.57.42-1.1.97-1.6,1.65-.5.68-1.11,1.69-1.82,3.03-.71,1.34-1.68,3.37-2.91,6.08l-15.8,35.19Z"/>
    <path class="cls-5" d="m239.99,191.02c-3.3,3.49-6.56,5.96-9.79,7.42-3.23,1.45-6.95,2.18-11.15,2.18-7.53,0-13.19-2.06-16.99-6.18-3.8-4.12-5.69-10.23-5.69-18.34,0-5.23.98-9.75,2.93-13.55,1.95-3.8,4.73-6.67,8.31-8.63s7.75-2.93,12.5-2.93c2.94,0,5.52.34,7.73,1.02,2.21.68,4.11,1.62,5.69,2.84,1.58,1.21,2.89,2.67,3.93,4.39,1.23,2.04,2.15,4.36,2.76,6.98.65,2.68.98,5.93,1.02,9.74h-30.73c.03,5.85,1.07,10.15,3.13,12.92,2.05,2.76,5.18,4.14,9.38,4.14,2.46,0,4.67-.46,6.64-1.38,1.97-.92,4.1-2.54,6.4-4.87l3.93,4.26Zm-13.09-20.31c-.13-4.94-.78-8.63-1.94-11.05-1.16-2.42-3.04-3.63-5.62-3.63s-4.47,1.26-5.94,3.78c-1.47,2.52-2.35,6.16-2.64,10.9h16.14Z"/>
    <path class="cls-5" d="m268.05,151.77v3.2c-1.52.29-2.63.73-3.34,1.31-.71.58-1.07,1.45-1.07,2.62,0,1.55.42,3.57,1.26,6.06l6.98,21.18,7.71-18.56c.65-1.55,1.13-2.92,1.45-4.1.32-1.18.48-2.33.48-3.47,0-1.36-.39-2.48-1.16-3.37-.78-.89-1.87-1.45-3.3-1.67v-3.2h18.85v3.25c-.94.29-1.69.65-2.25,1.07-.57.42-1.1.97-1.6,1.65-.5.68-1.11,1.69-1.82,3.03-.71,1.34-1.68,3.37-2.91,6.08l-15.12,33.49h-9.16l-12.8-36.88c-.87-2.55-1.58-4.31-2.13-5.26-.55-.95-1.16-1.68-1.82-2.18-.66-.5-1.48-.85-2.45-1.04v-3.2h24.19Z"/>
  </g>
  <g>
    <g class="cls-29">
      <polygon class="cls-8" points="13.93 304.03 18.41 311.95 13.93 311.95 13.93 304.03"/>
      <polygon class="cls-8" points="13.93 273.54 35.65 311.95 18.41 311.95 13.93 304.03 13.93 273.54"/>
      <polygon class="cls-22" points="13.93 243.06 44.69 297.44 44.69 311.95 35.65 311.95 13.93 273.54 13.93 243.06"/>
      <polygon class="cls-7" points="13.93 237.3 24.52 231.31 44.69 266.96 44.69 297.44 13.93 243.06 13.93 237.3"/>
      <polygon class="cls-16" points="24.52 231.31 32.31 226.9 39.27 226.9 44.69 236.47 44.69 266.96 24.52 231.31"/>
      <polygon class="cls-1" points="44.69 236.47 39.27 226.9 44.69 226.9 44.69 236.47"/>
    </g>
    <g class="cls-17">
      <polygon class="cls-22" points="52.69 311.58 54.17 314.2 52.69 314.2 52.69 311.58"/>
      <polygon class="cls-7" points="52.69 281.1 71.42 314.2 54.17 314.2 52.69 311.58 52.69 281.1"/>
      <polygon class="cls-16" points="52.69 250.61 88.66 314.2 71.42 314.2 52.69 281.1 52.69 250.61"/>
      <polygon class="cls-1" points="52.69 248.21 64.72 241.4 105.91 314.2 88.66 314.2 52.69 250.61 52.69 248.21"/>
      <polygon class="cls-36" points="64.72 241.4 72.11 237.22 79.6 237.22 123.15 314.2 105.91 314.2 64.72 241.4"/>
      <polygon class="cls-19" points="96.85 237.22 140.4 314.2 123.15 314.2 79.6 237.22 96.85 237.22"/>
      <polygon class="cls-13" points="114.09 237.22 157.64 314.2 140.4 314.2 96.85 237.22 114.09 237.22"/>
      <polygon class="cls-27" points="131.34 237.22 174.89 314.2 157.64 314.2 114.09 237.22 131.34 237.22"/>
      <polygon class="cls-25" points="148.58 237.22 190.61 311.51 185.84 314.2 174.89 314.2 131.34 237.22 148.58 237.22"/>
      <polygon class="cls-37" points="165.83 237.22 203.67 304.12 190.61 311.51 148.58 237.22 165.83 237.22"/>
      <polygon class="cls-26" points="183.07 237.22 208.42 282.03 208.42 301.43 203.67 304.12 165.83 237.22 183.07 237.22"/>
      <polygon class="cls-45" points="200.32 237.22 208.42 251.54 208.42 282.03 183.07 237.22 200.32 237.22"/>
      <polygon class="cls-35" points="208.42 251.54 200.32 237.22 208.42 237.22 208.42 251.54"/>
    </g>
    <g>
      <g class="cls-9">
        <polygon class="cls-26" points="206.19 278.09 222.31 306.59 206.19 306.59 206.19 278.09"/>
        <polygon class="cls-45" points="206.19 247.61 239.56 306.59 222.31 306.59 206.19 278.09 206.19 247.61"/>
        <polygon class="cls-35" points="206.19 217.12 253.4 300.57 242.76 306.59 239.56 306.59 206.19 247.61 206.19 217.12"/>
        <polygon class="cls-24" points="206.19 201.56 212.59 197.94 266.46 293.17 253.4 300.57 206.19 217.12 206.19 201.56"/>
        <rect class="cls-44" x="238.55" y="187.15" width="15.01" height="109.42" transform="translate(-87.2 152.51) rotate(-29.5)"/>
        <rect class="cls-23" x="251.62" y="179.76" width="15.01" height="109.42" transform="translate(-81.86 157.98) rotate(-29.5)"/>
        <rect class="cls-20" x="264.68" y="172.37" width="15.01" height="109.42" transform="translate(-76.53 163.45) rotate(-29.5)"/>
        <rect class="cls-47" x="277.74" y="164.98" width="15.01" height="109.42" transform="translate(-71.2 168.93) rotate(-29.5)"/>
        <rect class="cls-34" x="290.81" y="157.59" width="15.01" height="109.42" transform="translate(-65.87 174.4) rotate(-29.5)"/>
        <rect class="cls-6" x="303.87" y="150.2" width="15.01" height="109.42" transform="translate(-60.53 179.88) rotate(-29.5)"/>
        <rect class="cls-30" x="316.94" y="142.81" width="15.01" height="109.42" transform="translate(-55.2 185.35) rotate(-29.5)"/>
        <rect class="cls-48" x="330" y="135.42" width="15.01" height="109.42" transform="translate(-49.87 190.83) rotate(-29.5)"/>
        <polygon class="cls-14" points="317.1 138.82 330.16 131.43 376.76 213.79 376.76 230.78 370.97 234.05 317.1 138.82"/>
        <polygon class="cls-49" points="330.16 131.43 343.23 124.04 376.76 183.31 376.76 213.79 330.16 131.43"/>
        <polygon class="cls-39" points="343.23 124.04 356.29 116.64 376.76 152.82 376.76 183.31 343.23 124.04"/>
        <polygon class="cls-39" points="356.29 116.64 372.23 107.63 376.76 107.63 376.76 152.82 356.29 116.64"/>
      </g>
      <g class="cls-33">
        <polygon class="cls-24" points="255.83 274.38 262.89 286.85 261.41 287.69 255.83 287.69 255.83 274.38"/>
        <polygon class="cls-44" points="255.83 250.34 258.59 248.78 275.95 279.46 262.89 286.85 255.83 274.38 255.83 250.34"/>
        <polygon class="cls-23" points="258.59 248.78 271.66 241.39 288.22 270.66 288.22 272.52 275.95 279.46 258.59 248.78"/>
        <polygon class="cls-20" points="271.66 241.39 284 234.41 284.95 234.41 288.22 240.18 288.22 270.66 271.66 241.39"/>
        <polygon class="cls-47" points="288.22 240.18 284.95 234.41 288.22 234.41 288.22 240.18"/>
      </g>
      <g class="cls-18">
        <polygon class="cls-24" points="262.7 291.38 264.78 290.2 272.47 303.8 262.7 303.8 262.7 291.38"/>
        <polygon class="cls-44" points="264.78 290.2 277.84 282.81 289.72 303.8 272.47 303.8 264.78 290.2"/>
        <polygon class="cls-23" points="277.84 282.81 278.15 282.63 294.99 282.63 306.88 303.65 306.61 303.8 289.72 303.8 277.84 282.81"/>
        <polygon class="cls-20" points="312.23 282.63 319.05 294.68 319.05 296.77 306.88 303.65 294.99 282.63 312.23 282.63"/>
        <polygon class="cls-47" points="319.05 294.68 312.23 282.63 319.05 282.63 319.05 294.68"/>
      </g>
      <g class="cls-43">
        <polygon class="cls-23" points="283.14 261.68 288.16 270.56 283.14 270.56 283.14 261.68"/>
        <polygon class="cls-20" points="283.14 235.2 284.85 234.23 302.14 264.8 291.96 270.56 288.16 270.56 283.14 261.68 283.14 235.2"/>
        <polygon class="cls-47" points="284.85 234.23 297.17 227.26 298.15 227.26 304.14 237.84 304.14 263.67 302.14 264.8 284.85 234.23"/>
        <polygon class="cls-34" points="304.14 237.84 298.15 227.26 304.14 227.26 304.14 237.84"/>
      </g>
      <g class="cls-12">
        <polygon class="cls-23" points="294 280.88 296.79 285.82 294 285.82 294 280.88"/>
        <polygon class="cls-20" points="294 273.53 303.91 267.92 314.04 285.82 296.79 285.82 294 280.88 294 273.53"/>
        <polygon class="cls-47" points="303.91 267.92 308.17 265.51 319.79 265.51 329.48 282.64 323.85 285.82 314.04 285.82 303.91 267.92"/>
        <polygon class="cls-34" points="337.04 265.51 342.06 274.39 342.06 275.52 329.48 282.64 319.79 265.51 337.04 265.51"/>
        <polygon class="cls-6" points="342.06 274.39 337.04 265.51 342.06 265.51 342.06 274.39"/>
      </g>
      <g class="cls-15">
        <polygon class="cls-47" points="304.89 239.17 311.13 250.2 304.89 250.2 304.89 239.17"/>
        <polygon class="cls-34" points="304.89 208.69 325.52 245.15 316.58 250.2 311.13 250.2 304.89 239.17 304.89 208.69"/>
        <polygon class="cls-6" points="304.89 208.48 311.7 204.63 319.84 204.63 326.65 216.67 326.65 244.5 325.52 245.15 304.89 208.69 304.89 208.48"/>
        <polygon class="cls-30" points="326.65 216.67 319.84 204.63 326.65 204.63 326.65 216.67"/>
      </g>
      <g class="cls-38">
        <polygon class="cls-34" points="319.96 247.1 325.01 244.24 335.04 261.98 319.96 261.98 319.96 247.1"/>
        <polygon class="cls-6" points="325.01 244.24 329.18 241.88 340.92 241.88 349.68 257.38 341.54 261.98 335.04 261.98 325.01 244.24"/>
        <polygon class="cls-30" points="358.16 241.88 362.74 249.99 349.68 257.38 340.92 241.88 358.16 241.88"/>
        <polygon class="cls-48" points="364.68 248.89 362.74 249.99 358.16 241.88 364.68 241.88 364.68 248.89"/>
      </g>
      <g class="cls-28">
        <polygon class="cls-30" points="338.94 221.99 344.98 218.57 355.83 237.77 338.94 237.77 338.94 221.99"/>
        <polygon class="cls-48" points="344.98 218.57 350.29 215.57 360.52 215.57 369.49 231.43 358.29 237.77 355.83 237.77 344.98 218.57"/>
        <polygon class="cls-14" points="376.13 227.67 369.49 231.43 360.52 215.57 376.13 215.57 376.13 227.67"/>
      </g>
      <g class="cls-46">
        <polygon class="cls-6" points="321.08 206.82 334.14 229.91 321.08 229.91 321.08 206.82"/>
        <polygon class="cls-30" points="321.08 184.35 323.28 183.1 324.91 183.1 339.86 209.52 339.86 227.01 334.72 229.91 334.14 229.91 321.08 206.82 321.08 184.35"/>
        <polygon class="cls-48" points="339.86 209.52 324.91 183.1 339.86 183.1 339.86 209.52"/>
      </g>
      <g class="cls-3">
        <polygon class="cls-48" points="352.49 201.38 358.97 212.83 352.49 212.83 352.49 201.38"/>
        <polygon class="cls-14" points="352.49 194.62 362.66 188.87 374.04 208.99 367.25 212.83 358.97 212.83 352.49 201.38 352.49 194.62"/>
        <polygon class="cls-49" points="362.66 188.87 370.52 184.42 377.39 184.42 383.63 195.46 383.63 203.56 374.04 208.99 362.66 188.87"/>
        <polygon class="cls-39" points="383.63 195.46 377.39 184.42 383.63 184.42 383.63 195.46"/>
      </g>
      <g class="cls-21">
        <polygon class="cls-30" points="333.12 197.61 337.54 205.43 333.12 205.43 333.12 197.61"/>
        <polygon class="cls-48" points="333.12 167.13 350.23 197.39 350.23 203.99 347.67 205.43 337.54 205.43 333.12 197.61 333.12 167.13"/>
        <polygon class="cls-14" points="347 161.18 350.23 166.9 350.23 197.39 333.12 167.13 333.12 161.18 347 161.18"/>
        <polygon class="cls-49" points="350.23 166.9 347 161.18 350.23 161.18 350.23 166.9"/>
      </g>
      <g class="cls-10">
        <polygon class="cls-14" points="360.98 185.9 361.72 187.2 360.98 187.2 360.98 185.9"/>
        <polygon class="cls-49" points="360.98 169.1 366.84 165.78 377.41 184.46 372.56 187.2 361.72 187.2 360.98 185.9 360.98 169.1"/>
        <polygon class="cls-39" points="366.84 165.78 379.2 158.79 380.13 158.79 385.14 167.63 385.14 180.09 377.41 184.46 366.84 165.78"/>
        <polygon class="cls-39" points="385.14 167.63 380.13 158.79 385.14 158.79 385.14 167.63"/>
      </g>
      <g class="cls-41">
        <polygon class="cls-48" points="337.9 175.58 341.39 181.76 337.9 181.76 337.9 175.58"/>
        <polygon class="cls-14" points="339.7 148.28 356.72 178.37 356.72 181.76 341.39 181.76 337.9 175.58 337.9 148.28 339.7 148.28"/>
        <polygon class="cls-49" points="356.72 178.37 339.7 148.28 356.72 148.28 356.72 178.37"/>
      </g>
      <g class="cls-11">
        <polygon class="cls-39" points="363.44 137.12 366.8 135.22 378.16 155.31 372 158.8 363.44 158.8 363.44 137.12"/>
        <polygon class="cls-39" points="366.8 135.22 377.62 129.1 381.68 129.1 381.68 153.32 378.16 155.31 366.8 135.22"/>
      </g>
      <g class="cls-4">
        <polygon class="cls-14" points="340.55 149.79 343.44 154.9 340.55 154.9 340.55 149.79"/>
        <polygon class="cls-49" points="343.75 124.95 358.4 150.85 358.4 154.9 343.44 154.9 340.55 149.79 340.55 124.95 343.75 124.95"/>
        <polygon class="cls-39" points="358.4 150.85 343.75 124.95 358.4 124.95 358.4 150.85"/>
      </g>
      <g class="cls-42">
        <polygon class="cls-49" points="339.66 117.72 348.38 133.14 339.66 133.14 339.66 117.72"/>
        <polygon class="cls-39" points="350.64 106.65 357.71 119.16 357.71 133.14 348.38 133.14 339.66 117.72 339.66 106.65 350.64 106.65"/>
        <polygon class="cls-39" points="357.71 119.16 350.64 106.65 357.71 106.65 357.71 119.16"/>
      </g>
      <g class="cls-40">
        <polygon class="cls-39" points="359.14 121.69 359.56 122.43 359.14 122.43 359.14 121.69"/>
        <polygon class="cls-39" points="359.14 89.76 366.64 85.52 370.7 85.52 370.7 118.57 363.88 122.43 359.56 122.43 359.14 121.69 359.14 89.76"/>
      </g>
      <g class="cls-32">
        <rect class="cls-39" x="346.25" y="65.59" width="12.06" height="32.78"/>
      </g>
      <g class="cls-2">
        <polygon class="cls-39" points="339.81 87.51 352.61 110.14 339.12 110.14 339.12 87.51 339.81 87.51"/>
        <polygon class="cls-39" points="352.61 110.14 339.81 87.51 355.68 87.51 355.68 110.14 352.61 110.14"/>
      </g>
    </g>
  </g>
</svg>